<?xml version="1.0" encoding="UTF-8"?>
<svg xmlns="http://www.w3.org/2000/svg" xmlns:xlink="http://www.w3.org/1999/xlink" version="1.1" viewBox="0 0 32 32"><path d="M29,4H3C1.343,4,0,5.343,0,7v18c0,1.657,1.343,3,3,3h10c0,0.552,0.448,1,1,1h4c0.552,0,1-0.448,1-1h10  c1.657,0,3-1.343,3-3V7C32,5.343,30.657,4,29,4z M29,5v20H18.708c-0.618,0-1.236,0.146-1.789,0.422l-0.419,0.21V5H29z M15.5,5  v20.632l-0.419-0.21C14.528,25.146,13.91,25,13.292,25H3V5H15.5z M31,25c0,1.103-0.897,2-2,2H18v1h-4v-1H3c-1.103,0-2-0.897-2-2V7  c0-0.737,0.405-1.375,1-1.722V25c0,0.552,0.448,1,1,1h10.292c0.466,0,0.925,0.108,1.342,0.317l0.919,0.46  c0.141,0.07,0.294,0.106,0.447,0.106c0.153,0,0.306-0.035,0.447-0.106l0.919-0.46C17.783,26.108,18.242,26,18.708,26H29  c0.552,0,1-0.448,1-1V5.278C30.595,5.625,31,6.263,31,7V25z M6,12.5C6,12.224,6.224,12,6.5,12h5c0.276,0,0.5,0.224,0.5,0.5  S11.776,13,11.5,13h-5C6.224,13,6,12.776,6,12.5z M6,14.5C6,14.224,6.224,14,6.5,14h5c0.276,0,0.5,0.224,0.5,0.5S11.776,15,11.5,15  h-5C6.224,15,6,14.776,6,14.5z M6,16.5C6,16.224,6.224,16,6.5,16h5c0.276,0,0.5,0.224,0.5,0.5S11.776,17,11.5,17h-5  C6.224,17,6,16.776,6,16.5z M20,12.5c0-0.276,0.224-0.5,0.5-0.5h5c0.276,0,0.5,0.224,0.5,0.5S25.776,13,25.5,13h-5  C20.224,13,20,12.776,20,12.5z M20,14.5c0-0.276,0.224-0.5,0.5-0.5h5c0.276,0,0.5,0.224,0.5,0.5S25.776,15,25.5,15h-5  C20.224,15,20,14.776,20,14.5z M20,16.5c0-0.276,0.224-0.5,0.5-0.5h5c0.276,0,0.5,0.224,0.5,0.5S25.776,17,25.5,17h-5  C20.224,17,20,16.776,20,16.5z" fill="#ff0a16"></path></svg>
