<svg xmlns="http://www.w3.org/2000/svg" fill="#0089a1" width="24" height="24"><path d="M23.334 11.96a2.327 2.327 0 0 1-.393-2.727c.342-.64.366-1.401.064-2.062a2.323 2.323 0 0 0-1.601-1.302 2.324 2.324 0 0 1-1.803-2.081 2.327 2.327 0 0 0-3.112-1.999 2.325 2.325 0 0 1-2.642-.776 2.329 2.329 0 0 0-3.699 0 2.318 2.318 0 0 1-2.639.777 2.323 2.323 0 0 0-3.111 1.999A2.324 2.324 0 0 1 2.595 5.87a2.323 2.323 0 0 0-1.536 3.363c.479.897.32 2.001-.392 2.727a2.323 2.323 0 0 0 .526 3.66 2.324 2.324 0 0 1 1.144 2.505 2.326 2.326 0 0 0 2.421 2.794 2.326 2.326 0 0 1 2.317 1.489 2.326 2.326 0 0 0 3.548 1.042 2.322 2.322 0 0 1 2.754 0 2.327 2.327 0 0 0 3.549-1.042 2.324 2.324 0 0 1 2.316-1.489 2.323 2.323 0 0 0 2.421-2.794 2.325 2.325 0 0 1 1.145-2.505 2.323 2.323 0 0 0 .526-3.66zM10.75 17.39l-4.5-4.364 1.857-1.857 2.643 2.506 5.643-5.784 1.857 1.857-7.5 7.642z"/></svg>